<svg id="Capa_1" enable-background="new 0 0 511.918 511.918" height="512" fill="rgba(184, 29, 36, 1)" viewBox="0 0 511.918 511.918" width="512" xmlns="http://www.w3.org/2000/svg"><g><path d="m401.392 116.594c-29.53 0-57.294 11.5-78.175 32.382l-51.598 51.598 53.854 51.283-44.737 44.737 30 30-54.787 54.787-54.787-54.787 30-30-44.737-44.737 53.854-51.283-51.598-51.598c-43.203-43.206-113.139-43.212-156.35 0-43.105 43.105-43.105 113.243 0 156.35l189.688 179.998 33.931-56.321 33.931 56.321c.449-.427-10.003 9.491 189.688-179.998 69.207-69.21 20.046-188.732-78.177-188.732zm-185.806 321.271-162.178-153.886c-31.276-31.421-31.231-82.426.135-113.79 31.482-31.482 82.437-31.485 113.924 0l29.859 29.859-53.854 51.283 45.263 45.263-30 30 77.31 77.31zm242.902-153.886-162.177 153.886-20.459-33.961 77.31-77.31-30-30 45.263-45.263-53.854-51.283c21.308-17.44 39.371-53.454 86.821-53.454 71.14 0 107.702 86.546 57.096 137.385z"/><path d="m240.948 26.594h30v75h-30z"/><path d="m300.948 56.594h75v30h-75z" transform="matrix(.6 -.8 .8 .6 78.104 299.396)"/><path d="m158.448 34.094h30v75h-30z" transform="matrix(.8 -.6 .6 .8 -8.267 118.388)"/></g></svg>