<?xml version="1.0" encoding="UTF-8" standalone="no" ?>
<!DOCTYPE svg PUBLIC "-//W3C//DTD SVG 1.1//EN" "http://www.w3.org/Graphics/SVG/1.1/DTD/svg11.dtd">
<svg xmlns="http://www.w3.org/2000/svg" xmlns:xlink="http://www.w3.org/1999/xlink" version="1.1" width="350" height="350" viewBox="0 0 350 350" xml:space="preserve">
<desc>Created with Fabric.js 1.7.22</desc>
<defs>
</defs>
<g id="icon" style="stroke: none; stroke-width: 1; stroke-dasharray: none; stroke-linecap: butt; stroke-linejoin: miter; stroke-miterlimit: 10; fill: none; fill-rule: nonzero; opacity: 1;" transform="translate(-1.9444444444444287 -1.9444444444444287) scale(3.89 3.89)" >
	<path d="M 86.623 29.953 H 83.5 v -7.064 c 0 -4.459 -3.627 -8.087 -8.086 -8.087 H 14.586 c -4.459 0 -8.087 3.628 -8.087 8.087 v 7.064 H 3.377 C 1.515 29.953 0 31.468 0 33.33 v 34.721 c 0 1.862 1.515 3.377 3.377 3.377 h 4.577 l -0.273 0.481 c -0.763 1.347 -0.754 2.949 0.025 4.287 s 2.169 2.137 3.717 2.137 h 2.872 c 2.521 0 4.883 -1.35 6.164 -3.521 l 1.995 -3.384 h 45.092 l 1.995 3.384 c 1.28 2.172 3.642 3.521 6.163 3.521 h 2.872 c 1.548 0 2.938 -0.799 3.717 -2.136 c 0.779 -1.338 0.789 -2.94 0.026 -4.288 l -0.273 -0.481 h 4.577 c 1.862 0 3.377 -1.515 3.377 -3.377 V 33.33 C 90 31.468 88.485 29.953 86.623 29.953 z M 8.5 22.889 c 0 -3.356 2.73 -6.087 6.087 -6.087 h 60.828 c 3.355 0 6.086 2.73 6.086 6.087 v 7.064 h -8.241 c -1.861 0 -3.376 1.515 -3.376 3.377 v 8.837 H 20.118 V 33.33 c 0 -1.862 -1.515 -3.377 -3.377 -3.377 H 8.5 V 22.889 z M 20.118 44.167 h 49.765 v 4.617 c 0 0.759 -0.618 1.376 -1.377 1.376 H 21.495 c -0.759 0 -1.377 -0.617 -1.377 -1.376 V 44.167 z M 3.377 31.953 h 13.364 c 0.759 0 1.377 0.618 1.377 1.377 v 15.454 c 0 1.861 1.515 3.376 3.377 3.376 h 47.011 c 1.862 0 3.377 -1.515 3.377 -3.376 V 33.33 c 0 -0.759 0.617 -1.377 1.376 -1.377 h 13.364 c 0.759 0 1.377 0.618 1.377 1.377 v 30.157 H 2 V 33.33 C 2 32.57 2.618 31.953 3.377 31.953 z M 18.737 73.796 c -0.923 1.564 -2.624 2.537 -4.441 2.537 h -2.872 c -0.829 0 -1.572 -0.428 -1.989 -1.144 s -0.422 -1.573 -0.013 -2.294 l 0.832 -1.468 h 9.88 L 18.737 73.796 z M 80.579 72.896 c 0.408 0.721 0.403 1.578 -0.014 2.295 c -0.418 0.715 -1.161 1.143 -1.989 1.143 h -2.872 c -1.816 0 -3.518 -0.973 -4.44 -2.537 l -1.396 -2.368 h 9.88 L 80.579 72.896 z M 86.623 69.428 h -5.712 H 66.367 H 23.634 H 9.088 H 3.377 C 2.618 69.428 2 68.81 2 68.051 v -2.564 h 86 v 2.564 C 88 68.81 87.382 69.428 86.623 69.428 z" style="stroke: none; stroke-width: 1; stroke-dasharray: none; stroke-linecap: butt; stroke-linejoin: miter; stroke-miterlimit: 10; fill: rgb(0,0,0); fill-rule: nonzero; opacity: 1;" transform=" matrix(1 0 0 1 0 0) " stroke-linecap="round" />
	<path d="M 45.553 26.299 h -1.105 c -0.552 0 -1 -0.448 -1 -1 s 0.448 -1 1 -1 h 1.105 c 0.553 0 1 0.448 1 1 S 46.105 26.299 45.553 26.299 z" style="stroke: none; stroke-width: 1; stroke-dasharray: none; stroke-linecap: butt; stroke-linejoin: miter; stroke-miterlimit: 10; fill: rgb(0,0,0); fill-rule: nonzero; opacity: 1;" transform=" matrix(1 0 0 1 0 0) " stroke-linecap="round" />
	<path d="M 55.553 26.299 h -1.105 c -0.553 0 -1 -0.448 -1 -1 s 0.447 -1 1 -1 h 1.105 c 0.553 0 1 0.448 1 1 S 56.105 26.299 55.553 26.299 z" style="stroke: none; stroke-width: 1; stroke-dasharray: none; stroke-linecap: butt; stroke-linejoin: miter; stroke-miterlimit: 10; fill: rgb(0,0,0); fill-rule: nonzero; opacity: 1;" transform=" matrix(1 0 0 1 0 0) " stroke-linecap="round" />
	<path d="M 65.553 26.299 h -1.105 c -0.553 0 -1 -0.448 -1 -1 s 0.447 -1 1 -1 h 1.105 c 0.553 0 1 0.448 1 1 S 66.105 26.299 65.553 26.299 z" style="stroke: none; stroke-width: 1; stroke-dasharray: none; stroke-linecap: butt; stroke-linejoin: miter; stroke-miterlimit: 10; fill: rgb(0,0,0); fill-rule: nonzero; opacity: 1;" transform=" matrix(1 0 0 1 0 0) " stroke-linecap="round" />
	<path d="M 35.553 26.299 h -1.105 c -0.552 0 -1 -0.448 -1 -1 s 0.448 -1 1 -1 h 1.105 c 0.552 0 1 0.448 1 1 S 36.105 26.299 35.553 26.299 z" style="stroke: none; stroke-width: 1; stroke-dasharray: none; stroke-linecap: butt; stroke-linejoin: miter; stroke-miterlimit: 10; fill: rgb(0,0,0); fill-rule: nonzero; opacity: 1;" transform=" matrix(1 0 0 1 0 0) " stroke-linecap="round" />
	<path d="M 25.553 26.299 h -1.105 c -0.552 0 -1 -0.448 -1 -1 s 0.448 -1 1 -1 h 1.105 c 0.552 0 1 0.448 1 1 S 26.105 26.299 25.553 26.299 z" style="stroke: none; stroke-width: 1; stroke-dasharray: none; stroke-linecap: butt; stroke-linejoin: miter; stroke-miterlimit: 10; fill: rgb(0,0,0); fill-rule: nonzero; opacity: 1;" transform=" matrix(1 0 0 1 0 0) " stroke-linecap="round" />
	<path d="M 45.553 36.299 h -1.105 c -0.552 0 -1 -0.448 -1 -1 s 0.448 -1 1 -1 h 1.105 c 0.553 0 1 0.448 1 1 S 46.105 36.299 45.553 36.299 z" style="stroke: none; stroke-width: 1; stroke-dasharray: none; stroke-linecap: butt; stroke-linejoin: miter; stroke-miterlimit: 10; fill: rgb(0,0,0); fill-rule: nonzero; opacity: 1;" transform=" matrix(1 0 0 1 0 0) " stroke-linecap="round" />
	<path d="M 55.553 36.299 h -1.105 c -0.553 0 -1 -0.448 -1 -1 s 0.447 -1 1 -1 h 1.105 c 0.553 0 1 0.448 1 1 S 56.105 36.299 55.553 36.299 z" style="stroke: none; stroke-width: 1; stroke-dasharray: none; stroke-linecap: butt; stroke-linejoin: miter; stroke-miterlimit: 10; fill: rgb(0,0,0); fill-rule: nonzero; opacity: 1;" transform=" matrix(1 0 0 1 0 0) " stroke-linecap="round" />
	<path d="M 35.553 36.299 h -1.105 c -0.552 0 -1 -0.448 -1 -1 s 0.448 -1 1 -1 h 1.105 c 0.552 0 1 0.448 1 1 S 36.105 36.299 35.553 36.299 z" style="stroke: none; stroke-width: 1; stroke-dasharray: none; stroke-linecap: butt; stroke-linejoin: miter; stroke-miterlimit: 10; fill: rgb(0,0,0); fill-rule: nonzero; opacity: 1;" transform=" matrix(1 0 0 1 0 0) " stroke-linecap="round" />
</g>
</svg>