<?xml version="1.0" encoding="iso-8859-1"?>
<!-- Generator: Adobe Illustrator 19.0.0, SVG Export Plug-In . SVG Version: 6.00 Build 0)  -->
<svg version="1.1" id="Layer_1" xmlns="http://www.w3.org/2000/svg" xmlns:xlink="http://www.w3.org/1999/xlink" x="0px" y="0px"
	 viewBox="0 0 511.999 511.999" style="enable-background:new 0 0 511.999 511.999;" xml:space="preserve" fill="rgba(184, 29, 36, 1)">
<g>
	<g>
		<path d="M139.494,84.829c-11.584,0-22.844,2.643-33.471,7.858c-26.787,13.146-45.144,41.241-46.768,71.571
			c-1.23,23.017,4.533,41.91,19.891,65.216c4.312,6.545,19.011,24.124,29.122,34.835c2.991,3.166,7.018,4.765,11.055,4.765
			c3.744,0,7.495-1.374,10.432-4.148c6.104-5.764,6.379-15.384,0.617-21.488c-10.082-10.681-23.045-26.451-25.84-30.692
			c-11.748-17.828-15.791-30.529-14.919-46.866c1.046-19.511,12.745-37.529,29.804-45.903c6.422-3.151,13.175-4.748,20.076-4.748
			c8.393,0,15.2-6.807,15.2-15.2S147.887,84.829,139.494,84.829z"/>
	</g>
</g>
<g>
	<g>
		<path d="M151.166,268.266h-0.015c-8.393,0-15.192,6.807-15.192,15.2c0,8.393,6.813,15.2,15.208,15.2c8.395,0,15.2-6.807,15.2-15.2
			C166.366,275.073,159.561,268.266,151.166,268.266z"/>
	</g>
</g>
<g>
	<g>
		<path d="M457.599,292.425c10.783-11.759,19.041-21.967,24.621-30.45c15.042-22.887,31.996-55.035,29.54-100.877
			c-1.93-36.061-17.197-69.922-42.993-95.348c-26.182-25.807-60.369-40.017-96.26-40.017c-52.689,0-95.815,40.323-116.235,63.478
			c-19.841-23.297-62.001-63.478-116.776-63.478c-35.89,0-70.075,14.212-96.254,40.017C17.446,91.177,2.177,125.038,0.248,161.1
			c-1.914,35.849,7.202,66.965,29.555,100.889c20.052,30.426,72.272,78.539,110.893,110.495
			c23.966,19.828,46.567,36.866,65.363,49.271c30.497,20.128,42.835,22.709,50.174,22.709c6.335,0,16.263-1.888,37.596-14.624
			c18.588,33.609,54.396,56.426,95.444,56.426c60.104,0,109.001-48.897,109.001-109.001
			C498.273,343.016,482.381,312.423,457.599,292.425z M280.29,378.031c0.012,1.683,0.05,3.361,0.137,5.025
			c0.03,0.558,0.09,1.111,0.128,1.671c0.094,1.388,0.195,2.774,0.341,4.148c0.058,0.543,0.141,1.082,0.207,1.623
			c0.17,1.397,0.351,2.789,0.575,4.169c0.082,0.506,0.182,1.008,0.271,1.512c0.249,1.418,0.517,2.829,0.821,4.227
			c0.037,0.172,0.061,0.342,0.097,0.508c-19,11.868-25.69,13.034-26.627,13.143c-7.924-0.793-41.186-19.345-97.584-66.172
			c-47.334-39.3-88.916-80.544-103.468-102.625c-18.546-28.146-26.127-53.603-24.585-82.539
			c3.146-58.774,51.996-106.59,108.893-106.59c59.07,0,103.427,65.348,103.854,65.99c2.773,4.175,7.431,6.709,12.444,6.784
			c5.027,0.065,9.745-2.335,12.64-6.427c0.47-0.664,47.599-66.347,104.072-66.347c56.901,0,105.751,47.816,108.899,106.59
			c1.567,29.262-5.787,53.95-24.585,82.55c-5.323,8.091-14.204,18.783-25.93,31.239c-0.877-0.362-1.769-0.681-2.655-1.02
			c-0.632-0.242-1.259-0.497-1.895-0.728c-0.755-0.274-1.52-0.518-2.282-0.775c-0.983-0.331-1.965-0.667-2.961-0.974
			c-0.471-0.143-0.947-0.266-1.42-0.404c-1.274-0.371-2.551-0.734-3.844-1.06c-0.26-0.064-0.523-0.117-0.783-0.179
			c-1.484-0.362-2.973-0.704-4.478-1.003c-0.158-0.032-0.318-0.055-0.477-0.087c-1.584-0.307-3.175-0.59-4.783-0.828
			c-0.211-0.032-0.424-0.05-0.637-0.081c-1.538-0.22-3.083-0.419-4.641-0.573c-0.532-0.053-1.069-0.078-1.602-0.122
			c-1.239-0.103-2.478-0.216-3.729-0.277c-1.807-0.091-3.619-0.138-5.431-0.138c-5.635,0-11.171,0.429-16.577,1.259
			c-52.265,8.009-92.425,53.273-92.425,107.742C280.269,377.52,280.289,377.775,280.29,378.031z M389.272,455.867
			c-34.763,0-64.307-22.694-74.649-54.036c-0.213-0.645-0.423-1.289-0.617-1.936c-0.131-0.435-0.251-0.875-0.374-1.313
			c-0.198-0.701-0.4-1.401-0.578-2.107c-0.039-0.158-0.071-0.322-0.111-0.482c-0.356-1.449-0.663-2.906-0.935-4.372
			c-0.114-0.614-0.231-1.228-0.331-1.847c-0.087-0.538-0.16-1.076-0.234-1.614c-0.097-0.696-0.188-1.394-0.268-2.096
			c-0.055-0.486-0.105-0.974-0.151-1.462c-0.076-0.822-0.138-1.648-0.188-2.476c-0.024-0.382-0.053-0.763-0.071-1.146
			c-0.058-1.233-0.094-2.467-0.094-3.712c0-37.923,26.995-69.659,62.779-77c5.112-1.049,10.403-1.601,15.82-1.601
			c1.532,0,3.061,0.055,4.587,0.144c0.4,0.024,0.795,0.062,1.195,0.093c1.16,0.085,2.318,0.19,3.472,0.327
			c0.404,0.047,0.807,0.1,1.21,0.155c1.207,0.161,2.409,0.351,3.605,0.568c0.307,0.056,0.617,0.106,0.923,0.166
			c2.991,0.579,5.945,1.333,8.845,2.253c0.448,0.143,0.889,0.301,1.333,0.453c0.914,0.307,1.821,0.631,2.722,0.973
			c0.638,0.243,1.274,0.492,1.905,0.752c0.652,0.267,1.297,0.549,1.941,0.834c0.751,0.333,1.503,0.661,2.242,1.015
			c0.234,0.112,0.464,0.239,0.696,0.353c25.995,12.835,43.925,39.616,43.925,70.516
			C467.873,420.607,432.613,455.867,389.272,455.867z"/>
	</g>
</g>
<g>
	<g>
		<path d="M434.981,346.454c-6.241-5.61-15.855-5.098-21.466,1.148l-30.972,34.469l-19.652-11.792
			c-7.197-4.32-16.536-1.987-20.854,5.215c-4.318,7.197-1.985,16.535,5.215,20.854l30.4,18.24c2.432,1.459,5.133,2.166,7.813,2.166
			c4.2,0,8.343-1.737,11.313-5.04l39.35-43.793C441.739,361.675,441.225,352.064,434.981,346.454z"/>
	</g>
</g>
<g>
</g>
<g>
</g>
<g>
</g>
<g>
</g>
<g>
</g>
<g>
</g>
<g>
</g>
<g>
</g>
<g>
</g>
<g>
</g>
<g>
</g>
<g>
</g>
<g>
</g>
<g>
</g>
<g>
</g>
</svg>
