<?xml version="1.0" encoding="UTF-8" standalone="no" ?>
<!DOCTYPE svg PUBLIC "-//W3C//DTD SVG 1.1//EN" "http://www.w3.org/Graphics/SVG/1.1/DTD/svg11.dtd">
<svg xmlns="http://www.w3.org/2000/svg" xmlns:xlink="http://www.w3.org/1999/xlink" version="1.1" width="350" height="350" viewBox="0 0 350 350" xml:space="preserve">
<desc>Created with Fabric.js 1.7.22</desc>
<defs>
</defs>
<g id="icon" style="stroke: none; stroke-width: 1; stroke-dasharray: none; stroke-linecap: butt; stroke-linejoin: miter; stroke-miterlimit: 10; fill: none; fill-rule: nonzero; opacity: 1;" transform="translate(-1.9444444444444287 -1.9444444444444287) scale(3.89 3.89)" >
	<circle cx="55.919000000000004" cy="11.499" r="11.499" style="stroke: none; stroke-width: 1; stroke-dasharray: none; stroke-linecap: butt; stroke-linejoin: miter; stroke-miterlimit: 10; fill: rgba(184, 29, 36, 1); fill-rule: nonzero; opacity: 1;" transform="  matrix(1 0 0 1 0 0) "/>
	<path d="M 20.859 90 c -0.518 0 -1.043 -0.101 -1.551 -0.314 c -2.036 -0.857 -2.991 -3.203 -2.134 -5.239 l 24.139 -57.314 c 0.857 -2.036 3.205 -2.991 5.239 -2.134 l 17.994 7.579 l 9.046 -21.479 c 0.858 -2.036 3.203 -2.991 5.239 -2.134 c 2.036 0.857 2.991 3.203 2.134 5.239 L 70.367 39.369 c -0.858 2.036 -3.204 2.99 -5.239 2.134 l -17.994 -7.579 L 24.548 87.552 C 23.904 89.081 22.42 90 20.859 90 z" style="stroke: none; stroke-width: 1; stroke-dasharray: none; stroke-linecap: butt; stroke-linejoin: miter; stroke-miterlimit: 10; fill: rgba(184, 29, 36, 1); fill-rule: nonzero; opacity: 1;" transform=" matrix(1 0 0 1 0 0) " stroke-linecap="round" />
	<path d="M 12.719 48.721 c -0.518 0 -1.043 -0.101 -1.551 -0.314 c -2.036 -0.857 -2.991 -3.203 -2.134 -5.239 l 10.599 -25.165 c 0.857 -2.036 3.203 -2.99 5.239 -2.134 l 12.516 5.271 c 2.036 0.857 2.991 3.203 2.134 5.239 c -0.857 2.036 -3.203 2.992 -5.239 2.134 l -8.83 -3.719 l -9.046 21.479 C 15.764 47.801 14.28 48.721 12.719 48.721 z" style="stroke: none; stroke-width: 1; stroke-dasharray: none; stroke-linecap: butt; stroke-linejoin: miter; stroke-miterlimit: 10; fill: rgba(184, 29, 36, 1); fill-rule: nonzero; opacity: 1;" transform=" matrix(1 0 0 1 0 0) " stroke-linecap="round" />
	<path d="M 54.431 90 c -0.518 0 -1.044 -0.101 -1.551 -0.314 c -2.036 -0.857 -2.991 -3.203 -2.134 -5.239 l 9.047 -21.479 L 45.147 56.8 c -2.036 -0.857 -2.991 -3.203 -2.134 -5.239 c 0.857 -2.035 3.204 -2.993 5.239 -2.134 l 18.332 7.721 c 0.978 0.412 1.752 1.195 2.151 2.178 c 0.4 0.982 0.395 2.084 -0.018 3.061 L 58.119 87.552 C 57.474 89.081 55.992 90 54.431 90 z" style="stroke: none; stroke-width: 1; stroke-dasharray: none; stroke-linecap: butt; stroke-linejoin: miter; stroke-miterlimit: 10; fill: rgba(184, 29, 36, 1); fill-rule: nonzero; opacity: 1;" transform=" matrix(1 0 0 1 0 0) " stroke-linecap="round" />
</g>
</svg>