<?xml version="1.0" ?><svg viewBox="0 0 64 64" xmlns="http://www.w3.org/2000/svg"><defs><style>.a{fill:none;stroke:rgba(184, 29, 36, 1);stroke-linecap:round;stroke-linejoin:round;stroke-width:2px;}</style></defs><title/><path class="a" d="M46.15,10.36l8.83.37a4,4,0,0,1,3.83,4.16l-1.66,40A4,4,0,0,1,53,58.68l-32.7-1.36"/><rect class="a" height="48" rx="4" ry="4" transform="translate(-4.2 4.23) rotate(-8.04)" width="42" x="7" y="8"/><path class="a" d="M37.54,22.26a7.64,7.64,0,0,0-10.7,1.51h0a7.64,7.64,0,0,0-10.7,1.51C13.6,28.66,15.18,33.85,18,37s9.2,6.74,11.23,7.83a1,1,0,0,0,1.16-.16C32,43.05,37.17,37.87,39,34S40.91,24.8,37.54,22.26Z"/></svg>